<svg width="1031" height="872" viewBox="0 0 1031 872" fill="none" xmlns="http://www.w3.org/2000/svg">
<path d="M376.501 356.94C244.251 286.471 0 127.048 0 0H1031V789.966C921.37 851.754 651.215 906.801 651.215 677.624C651.215 448.447 560.374 454.916 376.501 356.94Z" fill="url(#paint0_linear_204_56)"/>
<path d="M55.099 212.28C54.9089 209.207 58.1171 207.08 60.8737 208.452L88.7844 222.344C91.541 223.716 91.7786 227.558 89.212 229.259L63.2257 246.485C60.6591 248.186 57.2134 246.471 57.0233 243.397L55.099 212.28Z" fill="#FEB75F"/>
<path d="M422.709 557.763C425.595 556.688 428.562 559.14 428.05 562.177L422.864 592.919C422.352 595.956 418.745 597.299 416.371 595.337L392.34 575.475C389.967 573.513 390.607 569.718 393.493 568.643L422.709 557.763Z" fill="#FEBD61"/>
<circle cx="487.5" cy="843.5" r="28.5" fill="#FEB75F"/>
<path d="M898.676 559.982C901.562 558.907 904.529 561.36 904.017 564.396L898.831 595.138C898.319 598.175 894.712 599.518 892.338 597.556L868.307 577.694C865.934 575.732 866.574 571.937 869.46 570.862L898.676 559.982Z" fill="#FEBD61"/>
<circle cx="767.5" cy="162.5" r="28.5" fill="#FEBF62"/>
<g filter="url(#filter0_d_204_56)">
<rect x="483" y="320" width="280" height="280" rx="24" fill="white"/>
</g>
<g filter="url(#filter1_d_204_56)">
<rect x="361" y="211" width="171" height="171" rx="24" fill="white"/>
</g>
<g filter="url(#filter2_d_204_56)">
<rect x="561" y="398" width="123" height="123" rx="8" fill="url(#paint1_linear_204_56)"/>
</g>
<path d="M569 420C569 419.448 569.448 419 570 419H598.136C598.689 419 599.136 419.448 599.136 420V485.364C599.136 485.916 598.689 486.364 598.136 486.364H570C569.448 486.364 569 485.916 569 485.364V420Z" fill="white"/>
<path d="M569 485C569 484.448 569.448 484 570 484H652C652.552 484 653 484.448 653 485V512C653 512.552 652.552 513 652 513H574C571.239 513 569 510.761 569 508V485Z" fill="white"/>
<rect x="650" y="405" width="27" height="28" rx="3" fill="white"/>
<path d="M412.466 282.909V312H406.415V282.909H412.466ZM427.171 312.426C424.965 312.426 423.057 311.957 421.447 311.02C419.846 310.073 418.611 308.757 417.739 307.071C416.868 305.376 416.433 303.411 416.433 301.176C416.433 298.922 416.868 296.953 417.739 295.267C418.611 293.572 419.846 292.256 421.447 291.318C423.057 290.371 424.965 289.898 427.171 289.898C429.378 289.898 431.281 290.371 432.881 291.318C434.491 292.256 435.732 293.572 436.603 295.267C437.474 296.953 437.91 298.922 437.91 301.176C437.91 303.411 437.474 305.376 436.603 307.071C435.732 308.757 434.491 310.073 432.881 311.02C431.281 311.957 429.378 312.426 427.171 312.426ZM427.2 307.739C428.203 307.739 429.041 307.455 429.714 306.886C430.386 306.309 430.893 305.523 431.234 304.528C431.584 303.534 431.759 302.402 431.759 301.134C431.759 299.865 431.584 298.733 431.234 297.739C430.893 296.744 430.386 295.958 429.714 295.381C429.041 294.803 428.203 294.514 427.2 294.514C426.186 294.514 425.334 294.803 424.643 295.381C423.961 295.958 423.445 296.744 423.094 297.739C422.754 298.733 422.583 299.865 422.583 301.134C422.583 302.402 422.754 303.534 423.094 304.528C423.445 305.523 423.961 306.309 424.643 306.886C425.334 307.455 426.186 307.739 427.2 307.739ZM451.702 312.426C449.496 312.426 447.588 311.957 445.978 311.02C444.378 310.073 443.142 308.757 442.271 307.071C441.399 305.376 440.964 303.411 440.964 301.176C440.964 298.922 441.399 296.953 442.271 295.267C443.142 293.572 444.378 292.256 445.978 291.318C447.588 290.371 449.496 289.898 451.702 289.898C453.909 289.898 455.812 290.371 457.413 291.318C459.022 292.256 460.263 293.572 461.134 295.267C462.005 296.953 462.441 298.922 462.441 301.176C462.441 303.411 462.005 305.376 461.134 307.071C460.263 308.757 459.022 310.073 457.413 311.02C455.812 311.957 453.909 312.426 451.702 312.426ZM451.731 307.739C452.735 307.739 453.573 307.455 454.245 306.886C454.917 306.309 455.424 305.523 455.765 304.528C456.115 303.534 456.29 302.402 456.29 301.134C456.29 299.865 456.115 298.733 455.765 297.739C455.424 296.744 454.917 295.958 454.245 295.381C453.573 294.803 452.735 294.514 451.731 294.514C450.718 294.514 449.865 294.803 449.174 295.381C448.492 295.958 447.976 296.744 447.626 297.739C447.285 298.733 447.114 299.865 447.114 301.134C447.114 302.402 447.285 303.534 447.626 304.528C447.976 305.523 448.492 306.309 449.174 306.886C449.865 307.455 450.718 307.739 451.731 307.739ZM466.376 320.182V290.182H472.342V293.847H472.612C472.877 293.259 473.26 292.663 473.762 292.057C474.273 291.441 474.936 290.93 475.751 290.523C476.575 290.106 477.597 289.898 478.819 289.898C480.41 289.898 481.878 290.314 483.222 291.148C484.567 291.972 485.642 293.217 486.447 294.884C487.252 296.541 487.654 298.619 487.654 301.119C487.654 303.553 487.261 305.608 486.475 307.284C485.699 308.951 484.638 310.215 483.293 311.077C481.958 311.929 480.462 312.355 478.805 312.355C477.63 312.355 476.631 312.161 475.808 311.773C474.993 311.384 474.326 310.897 473.805 310.31C473.284 309.713 472.886 309.112 472.612 308.506H472.427V320.182H466.376ZM472.299 301.091C472.299 302.388 472.479 303.52 472.839 304.486C473.199 305.452 473.719 306.205 474.401 306.744C475.083 307.275 475.912 307.54 476.887 307.54C477.872 307.54 478.705 307.27 479.387 306.73C480.069 306.181 480.585 305.423 480.935 304.457C481.295 303.482 481.475 302.36 481.475 301.091C481.475 299.831 481.3 298.723 480.95 297.767C480.599 296.811 480.083 296.062 479.401 295.523C478.719 294.983 477.881 294.713 476.887 294.713C475.902 294.713 475.069 294.973 474.387 295.494C473.715 296.015 473.199 296.754 472.839 297.71C472.479 298.667 472.299 299.794 472.299 301.091Z" fill="#FEA758"/>
<defs>
<filter id="filter0_d_204_56" x="389.9" y="230.9" width="466.2" height="466.2" filterUnits="userSpaceOnUse" color-interpolation-filters="sRGB">
<feFlood flood-opacity="0" result="BackgroundImageFix"/>
<feColorMatrix in="SourceAlpha" type="matrix" values="0 0 0 0 0 0 0 0 0 0 0 0 0 0 0 0 0 0 127 0" result="hardAlpha"/>
<feOffset dy="4"/>
<feGaussianBlur stdDeviation="46.55"/>
<feComposite in2="hardAlpha" operator="out"/>
<feColorMatrix type="matrix" values="0 0 0 0 0.996078 0 0 0 0 0.741176 0 0 0 0 0.380392 0 0 0 1 0"/>
<feBlend mode="normal" in2="BackgroundImageFix" result="effect1_dropShadow_204_56"/>
<feBlend mode="normal" in="SourceGraphic" in2="effect1_dropShadow_204_56" result="shape"/>
</filter>
<filter id="filter1_d_204_56" x="257.2" y="111.2" width="378.6" height="378.6" filterUnits="userSpaceOnUse" color-interpolation-filters="sRGB">
<feFlood flood-opacity="0" result="BackgroundImageFix"/>
<feColorMatrix in="SourceAlpha" type="matrix" values="0 0 0 0 0 0 0 0 0 0 0 0 0 0 0 0 0 0 127 0" result="hardAlpha"/>
<feOffset dy="4"/>
<feGaussianBlur stdDeviation="51.9"/>
<feComposite in2="hardAlpha" operator="out"/>
<feColorMatrix type="matrix" values="0 0 0 0 0 0 0 0 0 0 0 0 0 0 0 0 0 0 0.25 0"/>
<feBlend mode="normal" in2="BackgroundImageFix" result="effect1_dropShadow_204_56"/>
<feBlend mode="normal" in="SourceGraphic" in2="effect1_dropShadow_204_56" result="shape"/>
</filter>
<filter id="filter2_d_204_56" x="545.8" y="386.8" width="153.4" height="153.4" filterUnits="userSpaceOnUse" color-interpolation-filters="sRGB">
<feFlood flood-opacity="0" result="BackgroundImageFix"/>
<feColorMatrix in="SourceAlpha" type="matrix" values="0 0 0 0 0 0 0 0 0 0 0 0 0 0 0 0 0 0 127 0" result="hardAlpha"/>
<feOffset dy="4"/>
<feGaussianBlur stdDeviation="7.6"/>
<feComposite in2="hardAlpha" operator="out"/>
<feColorMatrix type="matrix" values="0 0 0 0 0 0 0 0 0 0 0 0 0 0 0 0 0 0 0.25 0"/>
<feBlend mode="normal" in2="BackgroundImageFix" result="effect1_dropShadow_204_56"/>
<feBlend mode="normal" in="SourceGraphic" in2="effect1_dropShadow_204_56" result="shape"/>
</filter>
<linearGradient id="paint0_linear_204_56" x1="0" y1="0" x2="655.358" y2="1020.07" gradientUnits="userSpaceOnUse">
<stop stop-color="#FEC163"/>
<stop offset="1" stop-color="#FF6E41"/>
<stop offset="1" stop-color="#E86D46"/>
</linearGradient>
<linearGradient id="paint1_linear_204_56" x1="684" y1="398" x2="561" y2="521" gradientUnits="userSpaceOnUse">
<stop stop-color="#FEB55E"/>
<stop offset="1" stop-color="#FF7343"/>
</linearGradient>
</defs>
</svg>
